<?xml version="1.0" standalone="no"?><!DOCTYPE svg PUBLIC "-//W3C//DTD SVG 1.1//EN" "http://www.w3.org/Graphics/SVG/1.1/DTD/svg11.dtd"><svg t="1714827737308" class="icon" viewBox="0 0 1024 1024" version="1.1" xmlns="http://www.w3.org/2000/svg" p-id="3168" xmlns:xlink="http://www.w3.org/1999/xlink" width="128" height="128"><path d="M794.062314 430.205993V137.982933L523.98968 0l-270.275848 137.982933v293.84878L14.123437 554.370312v331.240325l270.072634 137.982933 238.98075-121.928954 215.611034 121.928954L1009.876563 885.610637V555.386386z m-54.258385 231.055368l-49.584441-25.401865 167.245882-98.559238 58.525898 33.936892z m-162.571939-83.318118l175.984124-101.607462 44.097639 25.60508-171.106966 101.607462zM111.666601 573.066085l172.732685-88.195277L330.732288 508.037309l-160.336575 94.901369z m266.617979-334.085335l-4.673943 62.386982 60.964477 4.470728 2.641794-36.781901 56.290534 28.653304v225.568565l-178.625918-91.2435v-225.568566z m176.187339 281.249454V297.709863l178.625918-91.243501v210.937091z m-30.482239-275.356221l-49.584441-25.401866 160.336575-94.494939 60.964477 31.701528z m-129.041476 296.490573l60.964477 31.701529-172.732685 88.195276-49.584441-25.401865z m-80.269895 172.732686l178.625918-91.243501v225.36535l-178.625918 91.243501z m255.644374-621.837667l-160.336575 94.49494-58.729113-30.075809 172.732685-88.195277zM75.087914 622.853741l63.606271 32.514388-4.673943 62.386981 60.964477 4.470728 2.032149-36.781901 56.290534 28.653305v225.36535L75.087914 848.219091z m479.384005 12.192895l39.62691 20.321493-4.673943 62.386981 60.964477 4.470728 2.641794-36.781901 56.290534 28.653305v223.536415l-154.849772-87.788847z m215.814249 304.822386V714.097242L948.912086 622.853741v225.36535z" fill="#3788FF" p-id="3169"></path></svg>